# xmcd CD database file
#
# Track frame offsets:
#	150
#	29593
#	56239
#	72205
#	94555
#	113424
#	141890
#	155205
#	174086
#	197956
#	216201
#	243685
#	255516
#	276285
#	294450
#	308608
#	324257
#	341739
#
# Disc length: 4748 seconds
#
# Revision: 0
# Processed by: cddbd v1.5.2PL0 Copyright (c) Steve Scherf et al.
# Submitted via: CDex 1.51
#
DISCID=0f128a12
DTITLE=Sampler - Johan Derksen Presents Blues Village CD 1
DYEAR=2016
DGENRE=Blues
TTITLE0=The Band - It Makes No Difference
TTITLE1=Blood Sweat and Tears - God Bless The Child
TTITLE2=Bonnie Raitt - The Road's My Middle Name
TTITLE3=Buddy Guy - Born To Play Guitar
TTITLE4=Vintage Trouble - Shows What You Know
TTITLE5=Ian Siegel - Falling On Down Again
TTITLE6=David Clayton - Hard Times
TTITLE7=David Gogo - I Found A Love
TTITLE8=Fred James - Full Moon On Main Street
TTITLE9=The Allman Brothers Band - Love So Bad
TTITLE10=Collin Linden - The Hurt
TTITLE11=Irma Thomas - Ruler Of My Heart
TTITLE12=Janiva Magness - You Were Never Mine
TTITLE13=Jimmy Hall - Salty
TTITLE14=Lee McBee - Soul Deep
TTITLE15=Mink DeVille - Stand By Me
TTITLE16=Ana Popovic - Can't You See What You're Doing To Me
TTITLE17=Amen Corner - Gin House Blues
EXTD=YEAR: 2016
EXTT0=
EXTT1=
EXTT2=
EXTT3=
EXTT4=
EXTT5=
EXTT6=
EXTT7=
EXTT8=
EXTT9=
EXTT10=
EXTT11=
EXTT12=
EXTT13=
EXTT14=
EXTT15=
EXTT16=
EXTT17=
PLAYORDER=
